<svg width="100" height="100" viewBox="0 0 100 100" fill="none" xmlns="http://www.w3.org/2000/svg">
<rect width="100" height="100" rx="5" fill="#F87664"/>
<path d="M42.5156 80H25.8447V19.5312H58.5146C61.3421 19.5312 64.0436 19.9092 66.6191 20.665C69.2227 21.4209 71.5182 22.5687 73.5059 24.1084C75.4935 25.6201 77.0752 27.5378 78.251 29.8613C79.4548 32.1569 80.0566 34.8584 80.0566 37.9658C80.0566 39.9255 79.7767 41.7731 79.2168 43.5088C78.6569 45.2165 77.873 46.7842 76.8652 48.2119C75.8854 49.6396 74.7236 50.9274 73.3799 52.0752C72.0361 53.223 70.5664 54.1888 68.9707 54.9727C67.375 55.7565 65.6813 56.3584 63.8896 56.7783C62.126 57.1982 60.3343 57.4082 58.5146 57.4082H42.5156V80ZM63.1758 37.9658C63.1758 34.0745 62.182 31.0231 60.1943 28.8115C58.2347 26.5719 55.2673 25.4521 51.292 25.4521H42.5156V51.6973H51.292C53.4196 51.6973 55.2253 51.3613 56.709 50.6895C58.2207 49.9896 59.4525 49.0238 60.4043 47.792C61.3561 46.5602 62.056 45.1185 62.5039 43.4668C62.9518 41.7871 63.1758 39.9535 63.1758 37.9658Z" fill="#F5EADD"/>
</svg>
